<svg width="22" height="21" viewBox="0 0 22 21" fill="none" xmlns="http://www.w3.org/2000/svg">
<path d="M17.7369 0.736816H4.26322C2.35444 0.736816 0.894794 2.19647 0.894794 4.10524V17.5789C0.894794 19.4877 2.35444 20.9473 4.26322 20.9473H17.7369C19.6457 20.9473 21.1053 19.4877 21.1053 17.5789V4.10524C21.1053 2.19647 19.6457 0.736816 17.7369 0.736816ZM11.0001 7.47366C12.9088 7.47366 14.3685 8.93331 14.3685 10.8421C14.3685 12.7509 12.9088 14.2105 11.0001 14.2105C9.09129 14.2105 7.63164 12.7509 7.63164 10.8421C7.63164 8.93331 9.09129 7.47366 11.0001 7.47366ZM15.2667 5.22804C15.2667 4.44208 15.9404 3.88068 16.6141 3.88068C17.2878 3.88068 17.9615 4.55436 17.9615 5.22804C17.9615 5.90173 17.4001 6.57541 16.6141 6.57541C15.8281 6.57541 15.2667 6.01401 15.2667 5.22804ZM17.7369 18.7017H4.26322C3.58953 18.7017 3.14041 18.2526 3.14041 17.5789V10.8421H5.38602C5.38602 13.9859 7.8562 16.4561 11.0001 16.4561C14.1439 16.4561 16.6141 13.9859 16.6141 10.8421H18.8597V17.5789C18.8597 18.2526 18.4106 18.7017 17.7369 18.7017Z" fill="white"/>
</svg>
