<svg width="21" height="18" viewBox="0 0 21 18" fill="none" xmlns="http://www.w3.org/2000/svg">
<path d="M14.3573 10.3935C14.7456 10.3935 15.0675 10.5855 15.3476 10.9651C15.6248 11.3477 15.772 11.814 15.772 12.3727C15.772 12.9284 15.6248 13.3991 15.3476 13.7773C15.069 14.1599 14.7456 14.349 14.3573 14.349C13.956 14.349 13.6037 14.1599 13.3251 13.7773C13.0479 13.3991 12.9007 12.9284 12.9007 12.3727C12.9007 11.814 13.0479 11.3477 13.3251 10.9651C13.6023 10.584 13.9545 10.3935 14.3573 10.3935ZM19.3233 5.25567C20.4002 6.42643 20.9474 7.84695 20.9474 9.51864C20.9474 10.5985 20.8232 11.5729 20.5735 12.4391C20.3208 13.3009 20.0047 14.0039 19.6294 14.5453C19.2417 15.0947 18.7667 15.577 18.2233 15.973C17.7504 16.3359 17.2339 16.638 16.6858 16.8724C16.1683 17.0758 15.6307 17.2238 15.082 17.3141C14.6317 17.3973 14.1772 17.4565 13.7207 17.4917L12.7318 17.5119L11.9421 17.5336C11.2091 17.5654 10.4751 17.5654 9.74207 17.5336L8.95242 17.5119L7.96355 17.4917C7.50695 17.4566 7.05254 17.3974 6.60222 17.3141C6.05309 17.2258 5.51527 17.0777 4.99837 16.8724C4.45046 16.6386 3.93436 16.3364 3.46237 15.973C2.91814 15.5774 2.44263 15.0951 2.05485 14.5453C1.67807 14.0039 1.36337 13.3009 1.11073 12.4391C0.860989 11.5729 0.736839 10.5985 0.736839 9.51864C0.736839 7.84695 1.28397 6.42499 2.3609 5.25567C2.24252 5.19648 2.23819 4.61037 2.34935 3.49879C2.42636 2.442 2.66744 1.40364 3.06394 0.421021C4.41227 0.563938 6.08108 1.32905 8.0747 2.70337C8.74743 2.53158 9.66412 2.43919 10.8421 2.43919C12.0721 2.43919 12.9945 2.53158 13.6109 2.70481C14.519 2.09128 15.3866 1.59179 16.2167 1.21212C17.0597 0.835336 17.6675 0.611577 18.0486 0.552389L18.6203 0.422464C19.01 1.35937 19.2468 2.38577 19.3363 3.50024C19.446 4.61037 19.4417 5.19648 19.3233 5.25567ZM10.8854 16.5447C13.3222 16.5447 15.1498 16.2531 16.4014 15.6684C17.6357 15.0852 18.2666 13.8812 18.2666 12.0652C18.2666 11.0113 17.8725 10.1307 17.0799 9.42626C16.6866 9.05241 16.1885 8.80762 15.6522 8.72466C15.1109 8.6366 14.2822 8.6366 13.1692 8.72466C12.0591 8.81416 11.2954 8.85458 10.8854 8.85458C10.3296 8.85458 9.73052 8.8286 8.98129 8.76941C8.23061 8.71167 7.64162 8.67558 7.21576 8.65681C6.74996 8.64869 6.28508 8.7011 5.83278 8.81272C5.37713 8.91008 4.95352 9.12114 4.60138 9.42626C3.84926 10.1033 3.46093 10.981 3.46093 12.0652C3.46093 13.8812 4.07591 15.0852 5.30875 15.6684C6.53582 16.2531 8.35909 16.5447 10.7973 16.5447H10.8854ZM7.37167 10.3935C7.75855 10.3935 8.08192 10.5855 8.36054 10.9651C8.63771 11.3477 8.78496 11.814 8.78496 12.3727C8.78496 12.9284 8.63771 13.3991 8.36054 13.7773C8.08337 14.1599 7.75855 14.349 7.37167 14.349C6.9689 14.349 6.6181 14.1599 6.33804 13.7773C6.06087 13.3991 5.91362 12.9284 5.91362 12.3727C5.91362 11.814 6.06087 11.3477 6.33804 10.9651C6.61666 10.584 6.96746 10.3935 7.37167 10.3935Z" fill="white"/>
</svg>
