<svg width="21" height="21" viewBox="0 0 21 21" fill="none" xmlns="http://www.w3.org/2000/svg">
<path d="M18.6467 0.736816H1.77954C0.857886 0.736816 0.0526237 1.39997 0.0526237 2.3108V19.2155C0.0526237 20.1313 0.857886 20.9473 1.77954 20.9473H18.6418C19.5684 20.9473 20.2631 20.1258 20.2631 19.2155V2.3108C20.2685 1.39997 19.5684 0.736816 18.6467 0.736816ZM6.31743 17.5833H3.42209V8.58103H6.31743V17.5833ZM4.96991 7.2123H4.94916C4.02254 7.2123 3.42254 6.52253 3.42254 5.65907C3.42254 4.77982 4.03833 4.10629 4.9857 4.10629C5.93307 4.10629 6.51276 4.77486 6.53352 5.65907C6.53306 6.52253 5.93307 7.2123 4.96991 7.2123ZM16.8991 17.5833H14.0037V12.661C14.0037 11.4818 13.5824 10.6761 12.5349 10.6761C11.7346 10.6761 11.2609 11.2174 11.0502 11.7448C10.9713 11.9343 10.95 12.1923 10.95 12.4558V17.5833H8.05472V8.58103H10.95V9.83381C11.3714 9.23381 12.0296 8.37035 13.5612 8.37035C15.4618 8.37035 16.8995 9.62313 16.8995 12.324L16.8991 17.5833Z" fill="white"/>
</svg>
