<svg width="10" height="13" viewBox="0 0 10 13" fill="none" xmlns="http://www.w3.org/2000/svg">
<path d="M1.25 12.7273C0.906251 12.7273 0.611876 12.6025 0.366876 12.3531C0.121876 12.1036 -0.000415605 11.8041 1.06112e-06 11.4545V1.27273C1.06112e-06 0.922728 0.122501 0.623001 0.367501 0.373546C0.612501 0.124092 0.906668 -0.000423162 1.25 1.08041e-06H8.75C9.09375 1.08041e-06 9.38812 0.124728 9.63312 0.374183C9.87812 0.623637 10.0004 0.923152 10 1.27273V11.4545C10 11.8045 9.8775 12.1043 9.6325 12.3537C9.3875 12.6032 9.09333 12.7277 8.75 12.7273H1.25ZM1.25 11.4545H8.75V1.27273H7.5V5.72727L5.9375 4.77273L4.375 5.72727V1.27273H1.25V11.4545Z" fill="#7D8590"/>
</svg>
