<svg width="19" height="19" viewBox="0 0 19 19" fill="none" xmlns="http://www.w3.org/2000/svg">
<path d="M15.6071 14.662C16.0491 14.8683 16.4475 15.1214 16.8025 15.4214C17.1574 15.7214 17.4587 16.0557 17.7065 16.4245C17.9542 16.7932 18.1484 17.1932 18.2891 17.6245C18.4297 18.0557 18.5 18.4994 18.5 18.9557H17.2143C17.2143 18.4619 17.1138 17.9963 16.9129 17.5588C16.7121 17.1213 16.4375 16.7401 16.0893 16.4151C15.7411 16.0901 15.3292 15.8307 14.8538 15.637C14.3783 15.4432 13.8795 15.3495 13.3571 15.3557C12.8214 15.3557 12.3225 15.4495 11.8605 15.637C11.3984 15.8245 10.99 16.0807 10.635 16.4057C10.2801 16.7307 10.0022 17.1151 9.80134 17.5588C9.60045 18.0026 9.5 18.4682 9.5 18.9557H8.21429C8.21429 18.4994 8.28125 18.0557 8.41518 17.6245C8.54911 17.1932 8.7433 16.7932 8.99777 16.4245C9.25223 16.0557 9.55692 15.7214 9.91183 15.4214C10.2667 15.1214 10.6652 14.8683 11.1071 14.662C10.6049 14.3245 10.2132 13.9026 9.93192 13.3964C9.65067 12.8902 9.5067 12.3433 9.5 11.7558C9.5 11.2621 9.39955 10.7964 9.19866 10.359C8.99777 9.92146 8.72321 9.54022 8.375 9.21522C8.02679 8.89023 7.61496 8.63086 7.13951 8.43711C6.66406 8.24336 6.16518 8.14961 5.64286 8.15586C5.10714 8.15586 4.60826 8.24961 4.14621 8.43711C3.68415 8.62461 3.27567 8.88085 2.92076 9.20585C2.56585 9.53084 2.28795 9.91521 2.08705 10.359C1.88616 10.8027 1.78571 11.2683 1.78571 11.7558H0.5C0.5 11.2996 0.566964 10.8558 0.700893 10.4246C0.834821 9.99333 1.02902 9.59334 1.28348 9.2246C1.53795 8.85585 1.84263 8.52148 2.19754 8.22149C2.55246 7.92149 2.95089 7.66837 3.39286 7.46213C2.89062 7.12463 2.49888 6.70276 2.21763 6.19652C1.93638 5.69028 1.79241 5.14341 1.78571 4.55592C1.78571 4.06218 1.88616 3.59656 2.08705 3.15907C2.28795 2.72158 2.5625 2.34033 2.91071 2.01534C3.25893 1.69034 3.66741 1.43097 4.13616 1.23723C4.60491 1.04348 5.10714 0.949732 5.64286 0.955981C6.17187 0.955981 6.67076 1.04973 7.13951 1.23723C7.60826 1.42472 8.01674 1.68097 8.36495 2.00596C8.71317 2.33096 8.99107 2.71533 9.19866 3.15907C9.40625 3.60281 9.5067 4.06843 9.5 4.55592C9.5 5.14341 9.35938 5.69028 9.07812 6.19652C8.79688 6.70276 8.40179 7.12463 7.89286 7.46213C8.40179 7.69962 8.85714 8.00587 9.25893 8.38086C9.66071 8.75585 9.98884 9.18085 10.2433 9.65584C10.6049 9.1871 11.0569 8.82148 11.5993 8.55898C12.1417 8.29649 12.7277 8.16211 13.3571 8.15586C13.8862 8.15586 14.385 8.24961 14.8538 8.43711C15.3225 8.62461 15.731 8.88085 16.0792 9.20585C16.4275 9.53084 16.7054 9.91521 16.9129 10.359C17.1205 10.8027 17.221 11.2683 17.2143 11.7558C17.2143 12.3433 17.0737 12.8902 16.7924 13.3964C16.5112 13.9026 16.1161 14.3245 15.6071 14.662ZM5.64286 6.95588C5.99777 6.95588 6.32924 6.89338 6.63728 6.76839C6.94531 6.64339 7.21987 6.47152 7.46094 6.25277C7.70201 6.03402 7.88616 5.7809 8.01339 5.49341C8.14063 5.20591 8.20759 4.89342 8.21429 4.55592C8.21429 4.22468 8.14732 3.91531 8.01339 3.62781C7.87946 3.34032 7.69531 3.08407 7.46094 2.85908C7.22656 2.63408 6.95536 2.46221 6.64732 2.34346C6.33929 2.22471 6.00446 2.16221 5.64286 2.15596C5.28795 2.15596 4.95647 2.21846 4.64844 2.34346C4.3404 2.46846 4.06585 2.64033 3.82478 2.85908C3.58371 3.07782 3.39955 3.33094 3.27232 3.61844C3.14509 3.90593 3.07812 4.21843 3.07143 4.55592C3.07143 4.88717 3.13839 5.19654 3.27232 5.48403C3.40625 5.77153 3.5904 6.02777 3.82478 6.25277C4.05915 6.47777 4.33036 6.64964 4.63839 6.76839C4.94643 6.88713 5.28125 6.94963 5.64286 6.95588ZM13.3571 14.1558C13.7121 14.1558 14.0435 14.0933 14.3516 13.9683C14.6596 13.8433 14.9342 13.6714 15.1752 13.4527C15.4163 13.2339 15.6004 12.9808 15.7277 12.6933C15.8549 12.4058 15.9219 12.0933 15.9286 11.7558C15.9286 11.4246 15.8616 11.1152 15.7277 10.8277C15.5937 10.5402 15.4096 10.284 15.1752 10.059C14.9408 9.83396 14.6696 9.66209 14.3616 9.54334C14.0536 9.42459 13.7187 9.36209 13.3571 9.35584C13.0022 9.35584 12.6708 9.41834 12.3627 9.54334C12.0547 9.66834 11.7801 9.84021 11.5391 10.059C11.298 10.2777 11.1138 10.5308 10.9866 10.8183C10.8594 11.1058 10.7924 11.4183 10.7857 11.7558C10.7857 12.0871 10.8527 12.3964 10.9866 12.6839C11.1205 12.9714 11.3047 13.2277 11.5391 13.4527C11.7734 13.6776 12.0446 13.8495 12.3527 13.9683C12.6607 14.087 12.9955 14.1495 13.3571 14.1558ZM14.6429 3.35594H10.7857V2.15596H15.9286V6.95588H14.6429V3.35594Z" fill="white"/>
</svg>
