<svg width="20" height="19" viewBox="0 0 20 19" fill="none" xmlns="http://www.w3.org/2000/svg">
<path d="M4 11.7557H16V9.95569H4V11.7557ZM4 9.05569H16V7.25569H4V9.05569ZM4 6.35569H16V4.55569H4V6.35569ZM20 18.9557L16 15.3557H2C1.45 15.3557 0.979001 15.1793 0.587001 14.8265C0.195002 14.4737 -0.000664969 14.0501 1.69779e-06 13.5557V2.75569C1.69779e-06 2.26069 0.196002 1.83679 0.588002 1.48399C0.980002 1.13119 1.45067 0.95509 2 0.95569H18C18.55 0.95569 19.021 1.13209 19.413 1.48489C19.805 1.83769 20.0007 2.26129 20 2.75569V18.9557ZM16.85 13.5557L18 14.5682V2.75569H2V13.5557H16.85Z" fill="white"/>
</svg>
